<svg width="24" height="24" viewBox="0 0 24 24" fill="none" xmlns="http://www.w3.org/2000/svg">
<rect x="1.5" y="4.5" width="21" height="17" rx="0.5" stroke="#999999" stroke-linecap="round"/>
<path d="M7 4V3C7 2.44772 6.55228 2 6 2V2C5.44772 2 5 2.44772 5 3V4" stroke="#999999" stroke-linecap="round"/>
<path d="M19 4V3C19 2.44772 18.5523 2 18 2V2C17.4477 2 17 2.44772 17 3V4" stroke="#999999" stroke-linecap="round"/>
<line x1="1" y1="7.5" x2="23" y2="7.5" stroke="#999999"/>
<line x1="3.5" y1="16.5" x2="20.5" y2="16.5" stroke="#999999" stroke-linecap="round"/>
<line x1="3.5" y1="12.5" x2="20.5" y2="12.5" stroke="#999999" stroke-linecap="round"/>
<line x1="6.5" y1="9.5" x2="6.5" y2="19.5" stroke="#999999" stroke-linecap="round"/>
<line x1="12" y1="9.5" x2="12" y2="19.5" stroke="#999999" stroke-linecap="round"/>
<line x1="17.5" y1="9.5" x2="17.5" y2="19.5" stroke="#999999" stroke-linecap="round"/>
</svg>
